#define icon_gpu_32_width 32
#define icon_gpu_32_height 32
static unsigned char icon_gpu_32_bits[] = {
   0x00, 0x00, 0x00, 0x00, 0x00, 0x00, 0x00, 0x00, 0x00, 0x00, 0x00, 0x00,
   0x00, 0x00, 0x00, 0x00, 0x1e, 0x00, 0x00, 0x00, 0x11, 0x00, 0x00, 0x00,
   0x16, 0x00, 0x00, 0x00, 0x14, 0x00, 0x00, 0x00, 0xf4, 0xff, 0xff, 0x7f,
   0x16, 0x00, 0x00, 0x80, 0xd5, 0x00, 0x00, 0x80, 0x55, 0x00, 0x00, 0x80,
   0x15, 0x00, 0x00, 0x80, 0x15, 0x30, 0x27, 0x81, 0x16, 0x48, 0x29, 0x81,
   0x14, 0x48, 0x29, 0x81, 0x17, 0x08, 0x27, 0x81, 0x15, 0x68, 0x21, 0x81,
   0x15, 0x48, 0x21, 0x81, 0x15, 0x48, 0x21, 0x81, 0x15, 0x30, 0xc1, 0x80,
   0x15, 0x00, 0x00, 0x80, 0x15, 0x00, 0x00, 0x80, 0x16, 0x00, 0x00, 0x80,
   0xf4, 0xff, 0xff, 0x7f, 0x54, 0x92, 0x92, 0x24, 0x94, 0x7f, 0xfc, 0x1f,
   0x08, 0x00, 0x00, 0x00, 0x00, 0x00, 0x00, 0x00, 0x00, 0x00, 0x00, 0x00,
   0x00, 0x00, 0x00, 0x00, 0x00, 0x00, 0x00, 0x00 };
